<svg xmlns="http://www.w3.org/2000/svg" xmlns:xlink="http://www.w3.org/1999/xlink" width="230" height="29" viewBox="0 0 230 29">
  <defs>
    <polygon id="a" points="0 27.385 0 .2 26.829 .2 26.829 27.385"/>
    <polygon id="c" points="0 27.898 229.611 27.898 229.611 .2 0 .2"/>
  </defs>
  <rect width="100%" height="100%" fill="#484742"/>
  <g fill="none" fill-rule="evenodd">
    <polygon fill="white" points="153.134 1.036 153.134 27.51 171.106 27.51 171.106 24.521 156.348 24.521 156.348 1.036"/>
    <polygon fill="white" points="176.58 27.51 179.794 27.51 179.794 1.036 176.58 1.036"/>
    <g transform="translate(0 .42)">
      <path fill="white" d="M196.773369,12.305186 C202.830243,13.6250512 205.414178,15.8804151 205.414178,19.8462102 L205.414178,19.9212237 C205.414178,24.3625175 201.680243,27.4647278 196.334447,27.4647278 C192.198167,27.4647278 188.767385,26.1219245 185.537466,23.2373154 L185.444474,23.1548625 L187.44504,20.7872884 L187.542992,20.8753208 C190.430081,23.4859137 193.009677,24.5509811 196.447278,24.5509811 C199.812345,24.5509811 202.162561,22.769876 202.162561,20.2206577 L202.162561,20.1456442 C202.162561,17.9144582 201.092534,16.479283 195.446685,15.2889865 C189.039542,13.8959677 186.543019,11.7397951 186.543019,7.59793531 L186.543019,7.52292183 C186.543019,3.30356873 190.219919,0.241654987 195.285499,0.241654987 C198.963639,0.241654987 201.742857,1.21311051 204.58035,3.49079245 L204.676442,3.56766577 L202.799245,6.05736927 L202.696334,5.97367655 C200.338679,4.05122372 197.959946,3.15602156 195.211105,3.15602156 C191.999784,3.15602156 189.756819,4.84351482 189.756819,7.26068464 L189.756819,7.33569811 C189.756819,10.2655633 192.120054,11.3083127 196.773369,12.305186 Z"/>
      <polygon fill="white" points="208.755 .616 208.755 3.605 217.557 3.605 217.557 27.09 220.808 27.09 220.808 3.605 229.61 3.605 229.61 .616"/>
      <mask id="b" fill="white">
        <use xlink:href="#a"/>
      </mask>
      <path fill="white" d="M22.4635606,13.7924987 L22.4635606,13.8637925 C22.4635606,19.2653827 18.5882776,23.3396685 13.4501644,23.3396685 C8.35606739,23.3396685 4.36547439,19.1457332 4.36547439,13.7924987 L4.36547439,13.7212049 C4.36547439,8.31961456 8.24075741,4.24594879 13.3788706,4.24594879 C18.4729677,4.24594879 22.4635606,8.43926415 22.4635606,13.7924987 M13.4501644,0.200180593 C9.67345283,0.200180593 6.21911321,1.65209434 3.72197035,4.28748518 C1.32153908,6.8218248 -0.000185983827,10.1974313 -0.000185983827,13.7924987 L-0.000185983827,13.8637925 C-0.000185983827,17.4588598 1.30914016,20.8220674 3.68663342,23.3328491 C6.16021833,25.9453019 9.60277898,27.3848167 13.3788706,27.3848167 C17.1549623,27.3848167 20.6099218,25.932903 23.1070647,23.2975121 C25.506876,20.7637925 26.829221,17.388186 26.829221,13.7924987 L26.829221,13.7212049 C26.829221,10.1261375 25.5198949,6.76292992 23.1424016,4.25276819 C20.6688167,1.63969542 17.2262561,0.200180593 13.4501644,0.200180593" mask="url(#b)"/>
      <polygon fill="white" points="31.555 26.958 35.813 26.958 35.813 16.117 49.285 16.117 49.285 12.107 35.813 12.107 35.813 4.672 50.884 4.672 50.884 .627 31.555 .627"/>
      <polygon fill="white" points="55.838 26.958 60.096 26.958 60.096 16.118 73.567 16.118 73.567 12.108 60.096 12.108 60.096 4.672 75.166 4.672 75.166 .627 55.838 .627"/>
      <mask id="d" fill="white">
        <use xlink:href="#c"/>
      </mask>
      <polygon fill="white" points="80.853 26.958 85.111 26.958 85.111 .627 80.853 .627" mask="url(#d)"/>
      <path fill="white" d="M110.890811,19.9502992 C108.760677,21.9843423 106.665259,23.3395445 103.359086,23.3395445 C98.3641806,23.3395445 94.4523208,19.1456092 94.4523208,13.7923747 L94.4523208,13.7210809 C94.4523208,8.31949057 98.2811078,4.2458248 103.359086,4.2458248 C106.846283,4.2458248 109.102887,5.96307547 110.67879,7.45838544 L111.209464,7.96364151 L114.118871,4.83849326 L113.595016,4.34315633 C111.312995,2.1919434 108.497819,0.20067655 103.394423,0.20067655 C99.7020243,0.20067655 96.3059596,1.62779245 93.8323747,4.21978706 C91.4170647,6.75040701 90.0866604,10.1501914 90.0866604,13.7923747 L90.0866604,13.8636685 C90.0866604,21.5714582 95.7616469,27.3846927 103.287792,27.3846927 C108.524477,27.3846927 111.518197,25.0654744 113.756202,22.7970916 L114.267038,22.2788167 L111.398547,19.4648814 L110.890811,19.9502992 Z" mask="url(#d)"/>
      <polygon fill="#1FB14B" points="137.496 3.851 120.791 .643 120.783 .687 120.783 5.047 137.858 8.325 146.034 5.33 146.034 .722" mask="url(#d)"/>
      <polygon fill="#1FB14B" points="120.791 10.35 120.782 10.394 120.782 14.754 137.858 18.032 146.033 15.037 146.033 10.429 137.495 13.558" mask="url(#d)"/>
      <polygon fill="#1FB14B" points="120.791 20.216 120.782 20.26 120.782 24.619 137.858 27.897 146.033 24.902 146.033 20.295 137.495 23.423" mask="url(#d)"/>
    </g>
  </g>
</svg>
