<?xml version="1.0" encoding="utf-8"?>
<!-- Generator: Adobe Illustrator 23.0.1, SVG Export Plug-In . SVG Version: 6.00 Build 0)  -->
<svg version="1.1" id="Layer_1" xmlns="http://www.w3.org/2000/svg" xmlns:xlink="http://www.w3.org/1999/xlink" x="0px" y="0px"
	 viewBox="0 0 230 29" style="enable-background:new 0 0 230 29;" xml:space="preserve">
<style type="text/css">
	.st0{fill-rule:evenodd;clip-rule:evenodd;fill:#FFFFFF;}
	.st1{filter:url(#Adobe_OpacityMaskFilter);}
	.st2{mask:url(#b_1_);fill-rule:evenodd;clip-rule:evenodd;fill:#FFFFFF;}
	.st3{filter:url(#Adobe_OpacityMaskFilter_1_);}
	.st4{mask:url(#d_1_);fill-rule:evenodd;clip-rule:evenodd;fill:#FFFFFF;}
	.st5{filter:url(#Adobe_OpacityMaskFilter_2_);}
	.st6{mask:url(#d_2_);fill-rule:evenodd;clip-rule:evenodd;fill:#FFFFFF;}
	.st7{filter:url(#Adobe_OpacityMaskFilter_3_);}
	.st8{mask:url(#d_3_);fill-rule:evenodd;clip-rule:evenodd;fill:#1FB14B;}
	.st9{filter:url(#Adobe_OpacityMaskFilter_4_);}
	.st10{mask:url(#d_4_);fill-rule:evenodd;clip-rule:evenodd;fill:#1FB14B;}
	.st11{filter:url(#Adobe_OpacityMaskFilter_5_);}
	.st12{mask:url(#d_5_);fill-rule:evenodd;clip-rule:evenodd;fill:#1FB14B;}
</style>
<g>
	<polygon class="st0" points="153.1,1 153.1,27.5 171.1,27.5 171.1,24.5 156.3,24.5 156.3,1 	"/>
	<polygon class="st0" points="176.6,27.5 179.8,27.5 179.8,1 176.6,1 	"/>
	<g transform="translate(0 .42)">
		<path class="st0" d="M196.8,12.3c6.1,1.3,8.6,3.6,8.6,7.5v0.1c0,4.4-3.7,7.5-9.1,7.5c-4.1,0-7.6-1.3-10.8-4.2l-0.1-0.1l2-2.4
			l0.1,0.1c2.9,2.6,5.5,3.7,8.9,3.7c3.4,0,5.7-1.8,5.7-4.3v-0.1c0-2.2-1.1-3.7-6.7-4.9c-6.4-1.4-8.9-3.5-8.9-7.7V7.5
			c0-4.2,3.7-7.3,8.7-7.3c3.7,0,6.5,1,9.3,3.2l0.1,0.1l-1.9,2.5L202.7,6c-2.4-1.9-4.7-2.8-7.5-2.8c-3.2,0-5.5,1.7-5.5,4.1v0.1
			C189.8,10.3,192.1,11.3,196.8,12.3z"/>
		<polygon class="st0" points="208.8,0.6 208.8,3.6 217.6,3.6 217.6,27.1 220.8,27.1 220.8,3.6 229.6,3.6 229.6,0.6 		"/>
		<defs>
			<filter id="Adobe_OpacityMaskFilter" filterUnits="userSpaceOnUse" x="0" y="0.2" width="26.8" height="27.2">
				<feColorMatrix  type="matrix" values="1 0 0 0 0  0 1 0 0 0  0 0 1 0 0  0 0 0 1 0"/>
			</filter>
		</defs>
		<mask maskUnits="userSpaceOnUse" x="0" y="0.2" width="26.8" height="27.2" id="b_1_">
			<g class="st1">
				<polygon id="a_1_" class="st0" points="0,27.4 0,0.2 26.8,0.2 26.8,27.4 				"/>
			</g>
		</mask>
		<path class="st2" d="M22.5,13.8L22.5,13.8c0,5.5-3.9,9.5-9,9.5c-5.1,0-9.1-4.2-9.1-9.5v-0.1c0-5.4,3.9-9.5,9-9.5
			C18.5,4.2,22.5,8.4,22.5,13.8 M13.5,0.2c-3.8,0-7.2,1.5-9.7,4.1C1.3,6.8,0,10.2,0,13.8v0.1c0,3.6,1.3,7,3.7,9.5
			c2.5,2.6,5.9,4.1,9.7,4.1s7.2-1.5,9.7-4.1c2.4-2.5,3.7-5.9,3.7-9.5v-0.1c0-3.6-1.3-7-3.7-9.5C20.7,1.6,17.2,0.2,13.5,0.2"/>
		<polygon class="st0" points="31.6,27 35.8,27 35.8,16.1 49.3,16.1 49.3,12.1 35.8,12.1 35.8,4.7 50.9,4.7 50.9,0.6 31.6,0.6 		"/>
		<polygon class="st0" points="55.8,27 60.1,27 60.1,16.1 73.6,16.1 73.6,12.1 60.1,12.1 60.1,4.7 75.2,4.7 75.2,0.6 55.8,0.6 		"/>
		<defs>
			<filter id="Adobe_OpacityMaskFilter_1_" filterUnits="userSpaceOnUse" x="80.9" y="0.6" width="4.3" height="26.3">
				<feColorMatrix  type="matrix" values="1 0 0 0 0  0 1 0 0 0  0 0 1 0 0  0 0 0 1 0"/>
			</filter>
		</defs>
		<mask maskUnits="userSpaceOnUse" x="80.9" y="0.6" width="4.3" height="26.3" id="d_1_">
			<g class="st3">
				<polygon id="c_1_" class="st0" points="0,27.9 229.6,27.9 229.6,0.2 0,0.2 				"/>
			</g>
		</mask>
		<polygon class="st4" points="80.9,27 85.1,27 85.1,0.6 80.9,0.6 		"/>
		<defs>
			<filter id="Adobe_OpacityMaskFilter_2_" filterUnits="userSpaceOnUse" x="90.1" y="0.2" width="24.2" height="27.2">
				<feColorMatrix  type="matrix" values="1 0 0 0 0  0 1 0 0 0  0 0 1 0 0  0 0 0 1 0"/>
			</filter>
		</defs>
		<mask maskUnits="userSpaceOnUse" x="90.1" y="0.2" width="24.2" height="27.2" id="d_2_">
			<g class="st5">
				<polygon id="c_2_" class="st0" points="0,27.9 229.6,27.9 229.6,0.2 0,0.2 				"/>
			</g>
		</mask>
		<path class="st6" d="M110.9,20c-2.1,2-4.2,3.4-7.5,3.4c-5,0-8.9-4.2-8.9-9.5v-0.1c0-5.4,3.8-9.5,8.9-9.5c3.5,0,5.7,1.7,7.3,3.2
			l0.5,0.5l2.9-3.1l-0.5-0.5c-2.3-2.2-5.1-4.1-10.2-4.1c-3.7,0-7.1,1.4-9.6,4c-2.4,2.5-3.7,5.9-3.7,9.6v0.1
			c0,7.7,5.7,13.5,13.2,13.5c5.2,0,8.2-2.3,10.5-4.6l0.5-0.5l-2.9-2.8L110.9,20z"/>
		<defs>
			<filter id="Adobe_OpacityMaskFilter_3_" filterUnits="userSpaceOnUse" x="120.8" y="0.6" width="25.3" height="7.7">
				<feColorMatrix  type="matrix" values="1 0 0 0 0  0 1 0 0 0  0 0 1 0 0  0 0 0 1 0"/>
			</filter>
		</defs>
		<mask maskUnits="userSpaceOnUse" x="120.8" y="0.6" width="25.3" height="7.7" id="d_3_">
			<g class="st7">
				<polygon id="c_3_" class="st0" points="0,27.9 229.6,27.9 229.6,0.2 0,0.2 				"/>
			</g>
		</mask>
		<polygon class="st8" points="137.5,3.9 120.8,0.6 120.8,0.7 120.8,5 137.9,8.3 146,5.3 146,0.7 		"/>
		<defs>
			<filter id="Adobe_OpacityMaskFilter_4_" filterUnits="userSpaceOnUse" x="120.8" y="10.3" width="25.3" height="7.7">
				<feColorMatrix  type="matrix" values="1 0 0 0 0  0 1 0 0 0  0 0 1 0 0  0 0 0 1 0"/>
			</filter>
		</defs>
		<mask maskUnits="userSpaceOnUse" x="120.8" y="10.3" width="25.3" height="7.7" id="d_4_">
			<g class="st9">
				<polygon id="c_4_" class="st0" points="0,27.9 229.6,27.9 229.6,0.2 0,0.2 				"/>
			</g>
		</mask>
		<polygon class="st10" points="120.8,10.3 120.8,10.4 120.8,14.8 137.9,18 146,15 146,10.4 137.5,13.6 		"/>
		<defs>
			<filter id="Adobe_OpacityMaskFilter_5_" filterUnits="userSpaceOnUse" x="120.8" y="20.2" width="25.3" height="7.7">
				<feColorMatrix  type="matrix" values="1 0 0 0 0  0 1 0 0 0  0 0 1 0 0  0 0 0 1 0"/>
			</filter>
		</defs>
		<mask maskUnits="userSpaceOnUse" x="120.8" y="20.2" width="25.3" height="7.7" id="d_5_">
			<g class="st11">
				<polygon id="c_5_" class="st0" points="0,27.9 229.6,27.9 229.6,0.2 0,0.2 				"/>
			</g>
		</mask>
		<polygon class="st12" points="120.8,20.2 120.8,20.3 120.8,24.6 137.9,27.9 146,24.9 146,20.3 137.5,23.4 		"/>
	</g>
</g>
</svg>
