<?xml version="1.0" encoding="utf-8"?>
<svg version="1.1" xmlns="http://www.w3.org/2000/svg" xmlns:xlink="http://www.w3.org/1999/xlink" x="0px" y="0px"
	 viewBox="0 0 24 24" style="enable-background:new 0 0 24 24;" xml:space="preserve">
<path d="M19,1H5C3.9,1,3,1.9,3,3l0,12.9c0,0.7,0.3,1.3,0.9,1.7L12,23l8.1-5.4c0.5-0.4,0.9-1,0.9-1.7L21,3C21,1.9,20.1,1,19,1z M19,15.9l-7,4.7l-7-4.7V3h14V15.9z" />
<path d="M 8.5033433,18.225761 5.0303945,15.89284 5.0301332,9.4561404 5.029872,3.0194405 H 12 18.970128 v 6.437331 6.4373305 l -3.462433,2.322745 c -1.904339,1.27751 -3.477952,2.32704 -3.496918,2.33229 -0.01897,0.0052 -1.597312,-1.04027 -3.5074337,-2.323376 z" style="fill:#ffffff;stroke-width:0.04741584" />
</svg>
