<svg xmlns="http://www.w3.org/2000/svg" viewBox="0 0 293 296.67"><defs><style>.cls-1{fill:none;stroke:#3ba42f;stroke-linecap:square;stroke-linejoin:bevel;stroke-width:4px;}</style></defs><title>icon-consultant</title><g id="Layer_2" data-name="Layer 2"><g id="Layer_1-2" data-name="Layer 1"><path class="cls-1" d="M14,87v91h0A5.49,5.49,0,0,0,25,178h0l6-45,6,45h0A5.49,5.49,0,0,0,48,178h0V87"/><path class="cls-1" d="M49,115c7.27-5.27,11-13.33,11-23A29,29,0,0,0,2,92c0,9.67,3.73,17.73,11,23"/><circle class="cls-1" cx="31" cy="41" r="14"/><path class="cls-1" d="M245,87v91h0A5.49,5.49,0,0,0,256,178h0l6-45,6,45h0A5.49,5.49,0,0,0,279,178h0V87"/><path class="cls-1" d="M280,115c7.27-5.27,11-13.33,11-23a29,29,0,0,0-58,0c0,9.67,3.73,17.73,11,23"/><circle class="cls-1" cx="262" cy="41" r="14"/><line class="cls-1" x1="194.25" y1="294.67" x2="194.25" y2="151.6"/><polyline class="cls-1" points="146 294 148.49 275.42 151.11 294.04"/><line class="cls-1" x1="102.74" y1="151.6" x2="102.74" y2="294.4"/><path class="cls-1" d="M195,228c19.57-14.18,31.55-36.93,31.55-62.94a78.06,78.06,0,1,0-156.11,0c0,26,12,48.76,31.56,62.94"/><circle class="cls-1" cx="147.5" cy="33.91" r="31.91"/></g></g></svg>
