<svg xmlns="http://www.w3.org/2000/svg" width="17.894" height="31.526" viewBox="0 0 17.894 31.526">
  <path id="_001-facebook" data-name="001-facebook" d="M11.553,31.526H6.5A1.531,1.531,0,0,1,4.975,30V18.61H2.029A1.531,1.531,0,0,1,.5,17.08V12.2a1.531,1.531,0,0,1,1.529-1.529H4.975V8.228a8.32,8.32,0,0,1,2.2-5.961A7.924,7.924,0,0,1,13.017,0l3.85.006a1.531,1.531,0,0,1,1.527,1.529V6.066A1.531,1.531,0,0,1,16.865,7.6H14.273c-.791,0-.992.159-1.035.207-.071.081-.155.308-.155.937v1.93H16.67a1.554,1.554,0,0,1,.757.192,1.535,1.535,0,0,1,.787,1.338l0,4.88a1.531,1.531,0,0,1-1.529,1.529h-3.6V30A1.531,1.531,0,0,1,11.553,31.526Zm-4.73-1.848h4.411v-11.9a1.022,1.022,0,0,1,1.021-1.021h4.109l0-4.241H12.255A1.022,1.022,0,0,1,11.234,11.5V8.741a3.148,3.148,0,0,1,.618-2.16,3.132,3.132,0,0,1,2.42-.832h2.273V1.854l-3.53-.006c-3.819,0-6.192,2.445-6.192,6.38V11.5A1.022,1.022,0,0,1,5.8,12.52H2.348v4.241H5.8a1.022,1.022,0,0,1,1.021,1.021ZM16.864,1.854h0Zm0,0" transform="translate(-0.5)" fill="#fff"/>
</svg>
