<svg xmlns="http://www.w3.org/2000/svg" viewBox="0 0 258.82 222.82"><defs><style>.cls-1{fill:none;stroke:#3ba42f;stroke-linecap:square;stroke-linejoin:bevel;stroke-width:4px;}</style></defs><title>icon-search</title><g id="Layer_2" data-name="Layer 2"><g id="Layer_1-2" data-name="Layer 1"><path class="cls-1" d="M132.67,181H8.21A6.21,6.21,0,0,1,2,174.79V8.21A6.21,6.21,0,0,1,8.21,2H168.79A6.21,6.21,0,0,1,175,8.21V49.88"/><rect class="cls-1" x="27" y="32" width="26" height="26"/><rect class="cls-1" x="76" y="32" width="26" height="26"/><polyline class="cls-1" points="137.25 58 124 58 124 32 150 32 150 51.62"/><rect class="cls-1" x="27" y="79" width="26" height="26"/><rect class="cls-1" x="76" y="79" width="26" height="26"/><rect class="cls-1" x="27" y="124" width="26" height="26"/><polyline class="cls-1" points="102 135 102 150 76 150 76 124 99.93 124"/><circle class="cls-1" cx="172" cy="121" r="71"/><path class="cls-1" d="M146.51,75.67A52,52,0,0,0,120,121"/><line class="cls-1" x1="256" y1="220" x2="217.07" y2="175.87"/></g></g></svg>