<svg id="_002-linkedin" data-name="002-linkedin" xmlns="http://www.w3.org/2000/svg" width="28.254" height="31.716" viewBox="0 0 28.254 31.716">
  <path id="Trazado_31" data-name="Trazado 31" d="M6.934,151.625H1.587A1.088,1.088,0,0,0,.5,152.712v20.15a1.088,1.088,0,0,0,1.087,1.087H6.934a1.088,1.088,0,0,0,1.087-1.087v-20.15A1.088,1.088,0,0,0,6.934,151.625Zm-.774,20.462h-3.8v-18.6h3.8Zm0,0" transform="translate(-0.469 -142.233)" fill="#fff"/>
  <path id="Trazado_32" data-name="Trazado 32" d="M3.791,0A3.791,3.791,0,1,0,7.582,3.791,3.8,3.8,0,0,0,3.791,0Zm0,5.721a1.93,1.93,0,1,1,1.93-1.93A1.932,1.932,0,0,1,3.791,5.721Zm0,0" fill="#fff"/>
  <path id="Trazado_33" data-name="Trazado 33" d="M172.931,153.991a6.937,6.937,0,0,0-4.574-1.606,7.011,7.011,0,0,0-2.97.722v-.44a1.038,1.038,0,0,0-1.038-1.038h-5.444a1.038,1.038,0,0,0-1.038,1.038v20.247a1.038,1.038,0,0,0,1.038,1.038h5.551a.931.931,0,0,0,.931-.93V160.95a1.926,1.926,0,0,1,1.841-1.939,1.9,1.9,0,0,1,1.957,1.9v12.132a.911.911,0,0,0,.911.911h5.335a.911.911,0,0,0,.911-.911V161.279A9.469,9.469,0,0,0,172.931,153.991Zm1.551,18.1h-3.435V160.91a3.76,3.76,0,0,0-7.52,0v11.182h-3.8v-18.6h3.8v1.352h0a.929.929,0,0,0,1.546.7,5.155,5.155,0,0,1,3.318-1.294,5.071,5.071,0,0,1,3.347,1.175,7.613,7.613,0,0,1,2.743,5.859Zm0,0" transform="translate(-148.088 -142.236)" fill="#fff"/>
</svg>
