<svg xmlns="http://www.w3.org/2000/svg" width="347.484" height="695.855" viewBox="0 0 347.484 695.855">
  <g id="Group_132" data-name="Group 132" transform="translate(-312.406 -702.455)">
    <path id="Path_37" data-name="Path 37" d="M1957.405,1609.311V913.455H2304.89v695.855L2141.182,1445.6Z" transform="translate(-1644.999 -211)" fill="#3ba42f"/>
    <path id="estrella" d="M224.239,100.566a16.439,16.439,0,0,0-9.115-28.039l-55.5-8.064a7.249,7.249,0,0,1-5.462-3.97L129.351,10.208a16.439,16.439,0,0,0-29.48,0L75.054,60.5a7.257,7.257,0,0,1-5.466,3.97l-55.5,8.064a16.439,16.439,0,0,0-9.115,28.039l40.156,39.141a7.267,7.267,0,0,1,2.093,6.426l-9.473,55.27a16.093,16.093,0,0,0,3.585,13.329,16.61,16.61,0,0,0,20.264,4l49.633-26.1a7.429,7.429,0,0,1,6.756,0l49.638,26.1a16.267,16.267,0,0,0,7.646,1.914,16.483,16.483,0,0,0,12.613-5.912,16.086,16.086,0,0,0,3.585-13.329l-9.478-55.27a7.263,7.263,0,0,1,2.093-6.426Z" transform="translate(375.769 869.699)" fill="#fff"/>
  </g>
</svg>
