<svg xmlns="http://www.w3.org/2000/svg" width="15.148" height="15.147" viewBox="0 0 15.148 15.147">
  <g id="Group_260" data-name="Group 260" transform="translate(-18931 -2731)">
    <g id="linkedin" transform="translate(18931 2731)">
      <path id="Path_39" data-name="Path 39" d="M11.3,14.555H.888a.3.3,0,0,1-.3-.3V.888a.3.3,0,0,1,.3-.3h.592a.3.3,0,1,0,0-.592H.888A.888.888,0,0,0,0,.888V14.26a.888.888,0,0,0,.888.888H11.3a.3.3,0,0,0,0-.592Zm0,0" fill="#3ba42f"/>
      <path id="Path_40" data-name="Path 40" d="M130.709,0H120.3a.3.3,0,1,0,0,.592h10.414a.3.3,0,0,1,.3.3V14.26a.3.3,0,0,1-.3.3h-.592a.3.3,0,0,0,0,.592h.592a.889.889,0,0,0,.888-.888V.888A.888.888,0,0,0,130.709,0Zm0,0" transform="translate(-116.45)" fill="#3ba42f"/>
      <path id="Path_41" data-name="Path 41" d="M72.061,74.371A1.561,1.561,0,1,0,70.5,72.811,1.562,1.562,0,0,0,72.061,74.371Zm0-2.529a.969.969,0,1,1-.969.969A.97.97,0,0,1,72.061,71.842Zm0,0" transform="translate(-68.414 -69.142)" fill="#3ba42f"/>
      <path id="Path_42" data-name="Path 42" d="M198.445,181.75a2.88,2.88,0,0,0-1.79.629v-.186a.3.3,0,0,0-.3-.3H194.3a.3.3,0,0,0-.3.3v6.923a.3.3,0,0,0,.3.3h2.174a.3.3,0,0,0,.3-.3v-4a.895.895,0,0,1,1.79,0v4a.3.3,0,0,0,.3.3h2.174a.3.3,0,0,0,.3-.3v-4.489A2.88,2.88,0,0,0,198.445,181.75Zm2.285,7.071h-1.583v-3.7a1.487,1.487,0,0,0-2.973,0v3.7h-1.583V182.49h1.472v.622a.3.3,0,0,0,.535.174,2.283,2.283,0,0,1,4.132,1.341Zm0,0" transform="translate(-188.261 -176.373)" fill="#3ba42f"/>
      <path id="Path_43" data-name="Path 43" d="M76.8,186.75a.3.3,0,0,0-.3.3v6.923a.3.3,0,0,0,.3.3H78.97a.3.3,0,0,0,.3-.3v-6.923a.3.3,0,0,0-.3-.3Zm1.879,6.923H77.092v-6.331h1.583Zm0,0" transform="translate(-74.237 -181.225)" fill="#3ba42f"/>
      <path id="Path_44" data-name="Path 44" d="M80.3.592A.3.3,0,0,0,80.3,0h0a.3.3,0,1,0,0,.592Zm0,0" transform="translate(-77.633)" fill="#3ba42f"/>
      <path id="Path_45" data-name="Path 45" d="M412.3,492h0a.3.3,0,1,0,.3.3A.3.3,0,0,0,412.3,492Zm0,0" transform="translate(-399.811 -477.445)" fill="#3ba42f"/>
    </g>
  </g>
</svg>
