<svg xmlns="http://www.w3.org/2000/svg" width="38.759" height="32" viewBox="0 0 38.759 32">
  <path id="_003-gorjeo" data-name="003-gorjeo" d="M14.748,32C8.279,32,3.166,30.869.72,28.9l-.048-.038-.043-.043a1.99,1.99,0,0,1-.522-2.092l.023-.062a2.026,2.026,0,0,1,1.849-1.272A16.7,16.7,0,0,0,6.4,24.783a8.382,8.382,0,0,1-4.418-5.1,1.81,1.81,0,0,1,.631-2.11,1.847,1.847,0,0,1,.551-.282A12.224,12.224,0,0,1,.654,12.795l-.015-.05-.01-.051A1.884,1.884,0,0,1,1.5,10.671a1.876,1.876,0,0,1,.893-.252A9.451,9.451,0,0,1,1.681,8.24a9.114,9.114,0,0,1,.97-6.072l.24-.481a1.34,1.34,0,0,1,2.147-.349l.438.439C8.936,5.4,12.035,7.125,17.393,8.3A9.494,9.494,0,0,1,19.956,2.83,8.992,8.992,0,0,1,26.375,0h.016A12.86,12.86,0,0,1,31.7,1.728C32.84,1.354,34.216.776,35.643.164A1.8,1.8,0,0,1,37.66.519a1.771,1.771,0,0,1,.384,1.946q-.156.433-.352.85a1.805,1.805,0,0,1,.525.362A1.95,1.95,0,0,1,38.7,5.5l-.017.062a7.435,7.435,0,0,1-2.988,4.1C35.465,22.022,26.157,32,14.748,32ZM2.9,27.633c2.305,1.3,6.7,2.093,11.848,2.093A17.748,17.748,0,0,0,27.905,23.74,21.447,21.447,0,0,0,33.429,9.188V9.126a1.339,1.339,0,0,1,.714-1.185A4.826,4.826,0,0,0,36.232,5.63,1.34,1.34,0,0,1,34.94,3.519a7.377,7.377,0,0,0,.507-.8c-1.233.518-2.4.982-3.42,1.29a1.454,1.454,0,0,1-1.118-.12A11.074,11.074,0,0,0,26.4,2.274a7.067,7.067,0,0,0-6.8,7.162A1.341,1.341,0,0,1,18,10.751C11.822,9.534,8.161,7.709,4.354,3.883a6.71,6.71,0,0,0-.442,3.924A8.294,8.294,0,0,0,5.88,11.624,1.34,1.34,0,0,1,4.527,13.8a6.139,6.139,0,0,1-1.25-.48,11.324,11.324,0,0,0,3.882,4.5A1.34,1.34,0,0,1,6.3,20.267a6.026,6.026,0,0,1-1.779-.385A6.113,6.113,0,0,0,9.4,23.339a1.341,1.341,0,0,1,.4,2.506A16.106,16.106,0,0,1,2.9,27.633Zm0,0" transform="translate(0 0)" fill="#fff"/>
</svg>
