<svg xmlns="http://www.w3.org/2000/svg" viewBox="0 0 305 302"><defs><style>.cls-1{fill:none;stroke:#3ba42f;stroke-linecap:square;stroke-linejoin:bevel;stroke-width:4px;}</style></defs><title>icon-move</title><g id="Layer_2" data-name="Layer 2"><g id="Layer_1-2" data-name="Layer 1"><rect class="cls-1" x="2" y="151" width="301" height="23"/><line class="cls-1" x1="31" y1="297" x2="31" y2="174"/><line class="cls-1" x1="279" y1="297" x2="279" y2="174"/><circle class="cls-1" cx="153.5" cy="29.5" r="27.5"/><rect class="cls-1" x="31" y="103" width="19" height="48"/><polyline class="cls-1" points="50 151 69 151 69 103 50 103"/><path class="cls-1" d="M143.25,39.75a14.5,14.5,0,0,0,20.36.15"/><path class="cls-1" d="M204.76,174.63a50.11,50.11,0,0,1-15.19,17.9"/><path class="cls-1" d="M95,150.42V117.58A49.58,49.58,0,0,1,144.58,68h15.84A49.58,49.58,0,0,1,210,117.58v32.84"/><path class="cls-1" d="M117.84,194.18A49.77,49.77,0,0,1,99.93,174"/><path class="cls-1" d="M134.31,178h0A15.32,15.32,0,0,0,119,193.31V291h.19a11,11,0,0,0,21.62,0H141l8.57-96.37A15.31,15.31,0,0,0,134.31,178Z"/><path class="cls-1" d="M173.31,178h0a15.31,15.31,0,0,1,15.31,15.31V291h-.19a11,11,0,0,1-21.62,0h-.19l-8.56-96.37A15.31,15.31,0,0,1,173.31,178Z"/><line class="cls-1" x1="210" y1="297" x2="195.95" y2="188.98"/><line class="cls-1" x1="95.95" y1="297" x2="110" y2="188.98"/><polyline class="cls-1" points="242 88 252 78 282 105 268 120 268 135"/><path class="cls-1" d="M292.66,151a27,27,0,0,0-49.32,0Z"/><path class="cls-1" d="M242,113c.36-.3.71-.61,1.05-1a16.5,16.5,0,0,0,0-23.33l-2.17-2.17a16.5,16.5,0,0,0-23.33,0c-.34.34-.65.69-.95,1Z"/><line class="cls-1" x1="118" y1="150" x2="118" y2="101"/><line class="cls-1" x1="189" y1="150" x2="189" y2="101"/></g></g></svg>
